<svg xmlns="http://www.w3.org/2000/svg" viewBox="0 0 40 11">
  <path d="M7.826 3.117v7.46H6.092V9.57a2.388 2.388 0 0 1-1.002.88c-.424.213-.853.32-1.288.32a3.832 3.832 0 0 1-1.543-.304 3.802 3.802 0 0 1-1.21-.864A4.196 4.196 0 0 1 .27 8.35 4.141 4.141 0 0 1 0 6.848c0-.523.09-1.02.27-1.489.191-.48.451-.902.78-1.265a3.6 3.6 0 0 1 1.209-.848c.466-.213.98-.32 1.543-.32.435 0 .864.107 1.288.32.435.213.769.507 1.002.88V3.117h1.734Zm-3.929 6.1c.329 0 .626-.065.891-.193.276-.128.509-.299.7-.512.19-.213.34-.464.445-.752a2.63 2.63 0 0 0 .16-.913c0-.32-.054-.624-.16-.913a2.315 2.315 0 0 0-.445-.752 2.129 2.129 0 0 0-.7-.512 2.021 2.021 0 0 0-.89-.192c-.33 0-.626.064-.892.192a2.178 2.178 0 0 0-.684.512c-.19.214-.339.464-.445.752a2.883 2.883 0 0 0-.143.913c0 .32.048.624.143.913a2.198 2.198 0 0 0 1.129 1.264c.266.128.562.192.891.192Zm9.776-2.37 3.086 3.73h-2.164l-2.72-3.122v3.122h-1.734V.033L11.875 0v6.255l2.72-3.138h2.164l-3.086 3.73Zm11.272-3.73v7.46H23.21V9.57a2.388 2.388 0 0 1-1.002.88 2.84 2.84 0 0 1-1.289.32 3.831 3.831 0 0 1-1.543-.304 3.802 3.802 0 0 1-1.209-.864 4.195 4.195 0 0 1-.78-1.25 4.16 4.16 0 0 1-.27-1.504c0-.523.09-1.02.27-1.489.192-.48.452-.902.78-1.265a3.6 3.6 0 0 1 1.21-.848c.466-.213.98-.32 1.542-.32.435 0 .864.107 1.289.32.434.213.768.507 1.002.88V3.117h1.734Zm-3.93 6.1c.33 0 .626-.065.892-.193a2.13 2.13 0 0 0 .7-.512c.19-.213.339-.464.445-.752.106-.289.159-.593.159-.913 0-.32-.053-.624-.16-.913a2.317 2.317 0 0 0-.445-.752 2.13 2.13 0 0 0-.7-.512 2.022 2.022 0 0 0-.89-.192c-.33 0-.626.064-.891.192a2.179 2.179 0 0 0-.684.512c-.191.214-.34.464-.445.752a2.885 2.885 0 0 0-.144.913c0 .32.048.624.143.913.107.288.255.539.446.752.19.213.419.384.684.512.265.128.562.192.89.192Zm10.953-4.483a3.134 3.134 0 0 0-.35-.064 2.788 2.788 0 0 0-.334-.016c-.742 0-1.31.219-1.702.656-.392.427-.588 1.11-.588 2.05v3.217H27.26v-7.46h1.734v1.2c.084-.17.201-.33.35-.48.159-.16.339-.299.54-.416.212-.128.435-.224.668-.288a2.48 2.48 0 0 1 .732-.112 1.8 1.8 0 0 1 .684.112v1.6ZM40 3.117v7.46h-1.734v-1.04a2.332 2.332 0 0 1-.97.928c-.414.203-.896.304-1.448.304-.54 0-.996-.09-1.368-.272a2.237 2.237 0 0 1-.859-.736 2.766 2.766 0 0 1-.381-.929 7.17 7.17 0 0 1-.096-1.28V3.116h1.734v3.858c0 .32.026.62.08.897.053.277.137.517.254.72.127.192.292.347.493.464.212.118.472.176.78.176.604 0 1.05-.213 1.336-.64.297-.438.445-.977.445-1.617V3.117H40Z"/>
</svg>
